# Blender 4.2.3 LTS
# www.blender.org
mtllib shape2.mtl
o Kitchen.001
v -5099.999023 -3000.000000 -0.000085
v -3844.681152 -372.195679 0.000065
v -1900.000000 -2900.004150 -0.000081
v -2899.999512 -3000.000000 -0.000085
v -3399.999512 1600.000000 0.000151
v -1249.999756 1599.998291 0.000151
v -3851.657715 527.560791 0.000069
v 2824.995361 -1855.000000 -0.000000
v -5099.999023 1999.999756 0.000168
v 3386.015869 949.998779 0.000105
v 99.999512 -2900.004883 -0.000081
v 100.000977 1999.997803 0.000168
v -2899.999512 1600.000000 0.000151
v -3399.999512 1999.999756 0.000168
v 1149.997437 -2899.996094 -0.000081
v -1900.000000 1599.998291 0.000151
v -2899.999512 -306.136719 0.000067
v 7236.018555 1349.999023 0.000105
v -2900.000000 594.107300 0.000072
v -1249.999756 1999.997803 0.000168
v 1399.997192 -600.000793 0.000055
v 2971.381592 -300.018799 0.000045
v 3386.015869 2049.999756 0.000170
v 3449.994385 -2899.996094 -0.000081
v 7236.019043 2049.999756 0.000170
v 2824.995361 -405.000000 0.000028
v 3387.996094 949.998779 0.000105
v 3487.995117 1349.999023 0.000105
v 3449.994385 -1855.000000 -0.000000
v 2974.995605 -0.001831 0.000081
v 1149.997437 -600.000793 0.000055
v 1399.997192 -300.001831 0.000068
v 3247.423340 -350.000610 0.000048
v 1149.997437 -824.997925 0.000010
v 1149.997437 -775.000488 0.000047
v 100.000977 -775.001282 0.000047
v 99.999756 -825.005005 0.000010
v 3487.995117 614.878174 0.000090
v 3247.423828 -350.000610 0.000048
v -1900.000977 -324.226074 0.000032
v -1900.000000 -292.152344 0.000068
v -2899.999512 -341.718994 0.000031
v -2899.999512 -306.136963 0.000067
v 3323.037598 -46.730103 0.000068
v 3322.898438 -47.288208 0.000061
v 3387.996094 213.804199 0.000073
v 3387.996094 213.803833 0.000073
v 3323.037354 -46.730225 0.000061
v 3322.898193 -47.288330 0.000061
v 3322.898682 -47.288086 0.000079
v 3322.897949 -47.288452 0.000079
v 3247.424561 -349.997559 0.000048
v 3323.037109 -46.730347 0.000075
v 3323.037598 -46.730225 0.000068
v 3323.037598 -46.730103 0.000075
v 3334.687988 -0.001831 0.000081
v 3334.687988 -0.001831 0.000081
v 3334.688232 -0.001831 0.000081
v 3334.688477 -0.001831 0.000081
v 3387.996094 213.804565 0.000086
vn -0.0000 -0.0000 -1.0000
vn -0.0000 -0.0000 1.0000
vn -0.0384 0.0096 0.9992
vn -0.0881 0.0838 -0.9926
vn 0.0269 -0.0067 0.9996
vn -0.0296 0.0411 0.9987
vn -0.5645 0.8255 -0.0000
vn 0.0288 -0.0422 0.9987
vn 0.0546 -0.0760 0.9956
vn 0.0221 -0.0632 -0.9978
vn -0.0223 0.0056 -0.9997
vn -0.1153 0.0288 -0.9929
vn 0.1325 -0.0331 -0.9906
vn -0.0868 0.0216 -0.9960
vn -0.1716 0.0429 -0.9842
vn -0.0527 0.0131 -0.9985
vn 0.1221 -0.0304 -0.9921
vt 0.212231 0.000000
vt 0.000466 0.000000
vt 0.000000 1.000000
vt 0.000000 0.866667
vt 1.000000 0.866667
vt 1.000000 0.643253
vt 0.812501 1.000000
vt 0.500000 0.000000
vt 0.500000 1.000000
vt 1.000000 0.513158
vt 1.000000 0.364035
vt 0.000000 0.451891
vt 0.533456 0.924892
vt 0.661395 0.000000
vt 0.460631 0.000000
vt 0.000000 0.000000
vt 0.682780 0.608200
vt 0.685105 0.591001
vt 0.000000 0.790541
vt 0.000000 0.837838
vt 0.080645 0.837838
vt 0.080645 0.918919
vt 0.586937 0.918636
vt 0.000000 0.560811
vt 0.586538 0.917598
vt 1.000000 0.000000
vt 0.798387 0.498649
vt 1.000000 0.498649
vt 1.000000 1.000000
vt 0.732698 0.000000
vt 0.732699 0.000002
vt 0.812501 0.000000
vt 0.000000 0.597868
vt 0.000000 0.929825
vt 0.232143 0.929824
vt 0.232143 1.000000
vt 0.733914 0.921004
vt 1.000000 0.458324
vt 0.833333 1.000000
vt 0.833333 0.931035
vt 1.000000 0.931035
vt 1.000000 0.619674
vt 1.000000 0.602390
s 0
f 28/1/1 27/2/1 23/3/1
f 27/4/1 28/5/1 38/6/1
f 35/7/1 37/8/1 36/9/1
f 36/10/1 37/11/1 40/12/1
f 43/13/1 40/14/1 42/15/1
f 1/16/1 7/17/1 2/18/1
f 35/19/1 31/20/1 21/21/1
f 21/21/1 32/22/1 22/23/1
f 35/19/1 21/21/1 34/24/1
f 21/21/1 22/25/1 34/24/1
f 24/26/1 15/16/1 8/27/1
f 15/16/1 34/24/1 8/27/1
f 8/27/1 29/28/1 24/26/1
f 27/2/1 10/16/1 23/3/1
f 23/3/1 25/29/1 28/1/1
f 25/29/1 18/26/1 28/1/1
f 39/30/2 52/31/2 33/30/2
f 35/7/1 34/32/1 37/8/1
f 41/33/1 16/34/1 6/35/1
f 6/35/1 20/36/1 12/29/1
f 6/35/1 12/29/1 36/10/1
f 40/12/1 41/33/1 36/10/1
f 41/33/1 6/35/1 36/10/1
f 11/26/1 3/16/1 37/11/1
f 3/16/1 40/12/1 37/11/1
f 43/13/1 41/37/1 40/14/1
f 42/38/1 4/26/1 1/16/1
f 1/16/1 9/3/1 7/17/1
f 9/3/1 14/39/1 5/40/1
f 5/40/1 13/41/1 19/42/1
f 9/3/1 5/40/1 7/17/1
f 43/13/1 42/38/1 2/18/1
f 42/38/1 1/16/1 2/18/1
f 2/18/1 17/43/1 43/13/1
f 5/40/1 19/42/1 7/17/1
f 26/16/1 34/16/1 22/16/1
f 8/16/1 34/16/1 26/16/1
f 38/16/1 60/16/1 27/16/1
f 53/16/1 30/16/1 56/16/1
f 22/16/1 33/16/1 26/16/1
f 45/16/2 33/16/2 52/16/2
f 49/16/1 22/16/1 48/16/1 44/16/1 53/16/1 54/16/1 55/16/1 51/16/1 45/16/1 50/16/1
f 53/16/1 22/16/1 30/16/1
f 51/16/3 55/16/3 54/16/3
f 53/16/4 44/16/4 48/16/4
f 51/16/5 54/16/5 53/16/5
f 53/16/6 48/16/6 22/16/6
f 51/16/2 53/16/2 22/16/2
f 49/16/7 50/16/7 45/16/7
f 49/16/8 45/16/8 51/16/8
f 22/16/9 49/16/9 51/16/9
f 53/16/1 49/16/1 22/16/1
f 51/16/1 33/16/1 22/16/1
f 48/16/10 54/16/10 53/16/10
f 54/16/11 49/16/11 53/16/11
f 49/16/12 51/16/12 53/16/12
f 55/16/13 49/16/13 54/16/13
f 49/16/14 51/16/14 54/16/14
f 49/16/15 51/16/15 55/16/15
f 45/16/16 33/16/16 51/16/16
f 45/16/1 33/16/1 49/16/1
f 50/16/17 52/16/17 45/16/17
l 44 57
l 44 58
l 57 48
l 59 55
l 38 47
l 46 38
l 54 59
l 48 56
