# Blender 4.2.3 LTS
# www.blender.org
mtllib apartment-plane-gap.mtl
o Kitchen.001
v -5099.999023 -3000.000000 -1066.448853
v -3844.681152 -372.195801 -1066.448730
v -1900.000000 -2900.004150 -1066.448853
v -2899.999512 -3000.000000 -1066.448853
v -3399.999512 1600.000000 -1066.448608
v -1249.999756 1599.998291 -1066.448608
v -3851.657715 527.560791 -1066.448608
v 2824.995361 -1855.000000 -1066.448730
v -5099.999023 1999.999756 -1066.448608
v 3386.015869 949.998779 -1066.448608
v 99.999512 -2900.004883 -1066.448853
v 100.000977 1999.997803 -1066.448608
v -2899.999512 1600.000000 -1066.448608
v -3399.999512 1999.999756 -1066.448608
v 1149.997437 -2899.996094 -1066.448853
v -1900.000000 1599.998291 -1066.448608
v 6836.019531 1349.998779 -1066.448608
v -2900.000000 594.107300 -1066.448608
v -1249.999756 1999.997803 -1066.448608
v 1399.997192 -600.000793 -1066.448730
v 2971.381592 -300.018799 -1066.448730
v 3386.015869 2049.999756 -1066.448608
v 3449.994385 -2899.996094 -1066.448853
v 6836.020020 2049.999756 -1066.448608
v 2824.995361 -405.000122 -1066.448730
v 3387.996094 949.998779 -1066.448608
v 3487.995117 1349.998779 -1066.448608
v 3449.994385 -1855.000000 -1066.448730
v 2974.995605 -0.001953 -1066.448608
v 1149.997437 -600.000793 -1066.448730
v 1399.997192 -300.001831 -1066.448730
v 3247.424072 -349.999512 -1066.448730
v 1149.997437 -824.997925 -1066.448730
v 1149.997437 -775.000488 -1066.448730
v 100.000977 -775.001282 -1066.448730
v 99.999756 -825.005005 -1066.448730
v 3487.995117 614.878174 -1066.448608
v -1900.000977 -324.226196 -1066.448730
v -1900.000000 -292.152466 -1066.448730
v -2899.999512 -341.719116 -1066.448730
v -2899.999512 -306.137085 -1066.448730
v 3387.996094 213.803711 -1066.448608
v 3322.946777 -47.094604 -1066.448608
v 3334.688477 -0.001953 -1066.448608
v 3387.996094 213.804443 -1066.448608
vn -0.0000 -0.0000 -1.0000
vt 0.212231 0.000000
vt 0.000466 0.000000
vt 0.000000 1.000000
vt 0.000000 0.866667
vt 1.000000 0.866667
vt 1.000000 0.643253
vt 0.812501 1.000000
vt 0.500000 0.000000
vt 0.500000 1.000000
vt 1.000000 0.513158
vt 1.000000 0.364035
vt 0.000000 0.451891
vt 0.533456 0.924892
vt 0.661395 0.000000
vt 0.460631 0.000000
vt 0.000000 0.000000
vt 0.682780 0.608200
vt 0.685105 0.591001
vt 0.000000 0.790541
vt 0.000000 0.837838
vt 0.080645 0.837838
vt 0.080645 0.918919
vt 0.586937 0.918636
vt 0.000000 0.790541
vt 0.000000 0.560811
vt 0.586538 0.917598
vt 1.000000 0.000000
vt 0.798387 0.498649
vt 1.000000 0.498649
vt 1.000000 1.000000
vt 0.812501 0.000001
vt 0.000000 0.597868
vt 0.000000 0.929825
vt 0.232143 0.929824
vt 0.232143 1.000000
vt 1.000000 0.364035
vt 0.733914 0.921004
vt 1.000000 0.458324
vt 0.833333 1.000000
vt 0.833333 0.931035
vt 1.000000 0.931035
vt 1.000000 0.619674
s 0
f 27/1/1 26/2/1 22/3/1
f 26/4/1 27/5/1 37/6/1
f 34/7/1 36/8/1 35/9/1
f 35/10/1 36/11/1 38/12/1
f 41/13/1 38/14/1 40/15/1
f 1/16/1 7/17/1 2/18/1
f 34/19/1 30/20/1 20/21/1
f 20/21/1 31/22/1 21/23/1
f 34/24/1 20/21/1 33/25/1
f 20/21/1 21/26/1 33/25/1
f 23/27/1 15/16/1 8/28/1
f 15/16/1 33/25/1 8/28/1
f 8/28/1 28/29/1 23/27/1
f 26/2/1 10/16/1 22/3/1
f 22/3/1 24/30/1 27/1/1
f 24/30/1 17/27/1 27/1/1
f 34/7/1 33/31/1 36/8/1
f 39/32/1 16/33/1 6/34/1
f 6/34/1 19/35/1 12/30/1
f 6/34/1 12/30/1 35/10/1
f 38/12/1 39/32/1 35/10/1
f 39/32/1 6/34/1 35/10/1
f 11/27/1 3/16/1 36/36/1
f 3/16/1 38/12/1 36/36/1
f 41/13/1 39/37/1 38/14/1
f 40/38/1 4/27/1 1/16/1
f 1/16/1 9/3/1 7/17/1
f 9/3/1 14/39/1 5/40/1
f 5/40/1 13/41/1 18/42/1
f 9/3/1 5/40/1 7/17/1
f 41/13/1 40/38/1 2/18/1
f 40/38/1 1/16/1 2/18/1
f 5/40/1 18/42/1 7/17/1
f 25/16/1 33/16/1 21/16/1
f 8/16/1 33/16/1 25/16/1
f 37/16/1 45/16/1 26/16/1
f 43/16/1 29/16/1 44/16/1
f 21/16/1 32/16/1 25/16/1
f 43/16/1 21/16/1 29/16/1
f 43/16/1 32/16/1 21/16/1
l 45 42
l 42 37
