# Blender 4.2.3 LTS
# www.blender.org
mtllib untitled1.mtl
o floor
v 12.104004 15790.977539 -999.994812
v 195.513672 30253.259766 -999.999573
v 13325.783203 11578.645508 -999.994995
v 7519.617188 16267.707031 -1000.004028
v 13066.257812 8880.389648 -999.995117
v 54.242188 -10068.644531 -999.995911
v 13325.783203 14286.914062 -999.994873
v 10597.597656 6351.852051 -999.995178
v 7514.631348 -10001.814453 -999.995911
v 54.242188 11551.656250 -999.994995
v 10436.456055 15633.583008 -999.994812
v 7441.015137 5916.438477 -999.995239
v 5470.831055 11538.291016 -999.994995
v 10436.456055 14288.314453 -999.994873
v 7435.855469 8921.420898 -999.995056
v 7390.250000 13054.541016 -999.994995
v 5535.156250 15704.648438 -1000.002258
v 7697.266602 29153.011719 -1000.003784
v 5816.253906 29196.019531 -1000.003967
v 5890.943359 31478.316406 -999.994080
v 5674.962891 26464.210938 -1000.003601
v 5674.827637 26480.425781 -1000.003601
v 5547.477539 17188.386719 -1000.000427
v 5510.616211 15747.812500 -999.998535
v 5703.186523 27355.554688 -1000.003601
v 5683.669922 27356.285156 -1000.003601
v 5650.903320 24988.460938 -1000.003662
v -25.952148 7531.332031 -999.995422
v 5667.536133 24988.078125 -1000.003662
v -25.952148 7556.695801 -999.995178
v -159.608887 3469.419922 -999.995667
v 5477.675781 7523.125000 -999.995300
v 5475.846680 7545.132812 -999.995239
v 5500.450195 7685.243164 -999.995300
v 5475.652832 7690.745117 -999.995239
v 5494.771484 4720.019531 -999.995300
v 5459.366699 4722.330078 -999.995300
v -159.608887 3504.194336 -999.995544
v 5419.707031 3483.500977 -999.995605
v 5420.888672 3507.390137 -999.995544
v 5433.225098 11544.973633 -999.994995
v 7415.029785 6352.426270 -999.995178
v 7390.757812 6353.656738 -999.995178
v 7413.020508 8335.241211 -999.995117
v 7428.077637 7292.047852 -999.995239
v 7423.263672 9053.007812 -999.995056
v 7406.669434 7290.556641 -999.995239
v 7435.610840 8897.240234 -999.995117
v 10597.597656 8873.059570 -999.995178
v 7434.981445 9052.756836 -999.995056
v 7426.386719 8335.143555 -999.995117
v 13066.405273 11527.700195 -999.995056
v 7432.879883 11528.077148 -999.994995
v 7414.440430 11593.056641 -999.994995
v 7390.409180 10092.086914 -999.994995
v 5514.281250 9226.460938 -999.994934
v 7426.300293 10089.166992 -999.994995
v 7413.138184 13054.141602 -999.994995
v 5475.429688 9227.758789 -999.994934
v 7403.319824 15633.583008 -999.999451
v 7418.729492 15633.583008 -999.997131
v 7392.374023 14203.206055 -999.998291
v 7417.985352 14203.694336 -999.997742
v 148.707031 26562.429688 -999.999390
v 148.707031 26562.429688 -999.999390
v 7417.985352 14203.694336 -999.997742
v 7392.374023 14203.206055 -999.998291
v 7418.729492 15633.583008 -999.997131
v 7403.319824 15633.583008 -999.999451
v 5475.429688 9227.758789 -999.994934
v 7413.138184 13054.141602 -999.994995
v 7426.300293 10089.166992 -999.994995
v 5514.281250 9226.460938 -999.994934
v 7390.409180 10092.086914 -999.994995
v 7414.440430 11593.056641 -999.994995
v 7432.879883 11528.077148 -999.994995
v 13066.405273 11527.700195 -999.995056
v 7434.981445 9052.756836 -999.995056
v 7423.263672 9053.007812 -999.995056
v 5433.225098 11544.973633 -999.994995
v 5475.652832 7690.745117 -999.995239
v 5475.846680 7545.132812 -999.995239
v -159.608887 3469.419922 -999.995667
v -25.952148 7556.695801 -999.995178
v 5683.669922 27356.285156 -1000.003601
v 5703.186523 27355.554688 -1000.003601
v 5510.616211 15747.812500 -999.998535
v 5674.827637 26480.425781 -1000.003601
v 5674.962891 26464.210938 -1000.003601
v 5890.943359 31478.316406 -999.994080
v 5816.253906 29196.019531 -1000.003967
v 7697.266602 29153.011719 -1000.003784
v 5535.156250 15704.648438 -1000.002258
v 7390.250000 13054.541016 -999.994995
v 7435.855469 8921.420898 -999.995056
v 10436.456055 14288.314453 -999.994873
v 5470.831055 11538.291016 -999.994995
v 7441.015137 5916.438477 -999.995239
v 10436.456055 15633.583008 -999.994812
v 54.242188 11551.656250 -999.994995
v 7514.631348 -10001.814453 -999.995911
v 13325.783203 14286.914062 -999.994873
v 54.242188 -10068.644531 -999.995911
v 13066.257812 8880.389648 -999.995117
v 195.513672 30253.259766 -999.999573
v 12.104004 15790.977539 -999.994812
v 5565.053711 18330.244141 -1000.000854
v 5610.707031 21296.146484 -1000.002197
v 5648.346680 23970.478516 -1000.003235
v 5568.963867 18330.244141 -1000.000916
v 148.505371 26546.488281 -999.999451
v 5546.583496 18330.244141 -1000.005127
v 5541.133789 17188.787109 -1000.009521
v 148.505371 26546.488281 -1000.009460
v 5541.133789 17188.787109 -999.999512
v 5541.133789 17188.787109 -1000.009521
v 5622.923340 23970.773438 -1000.002991
vn -0.0000 -0.0000 -1.0000
vn -0.0001 -0.0000 -1.0000
vn 0.0002 -0.0000 -1.0000
vn 0.0635 0.9980 -0.0000
vn -0.0002 -0.0000 -1.0000
vn 1.0000 -0.0047 -0.0000
vn -1.0000 -0.0008 -0.0000
vn -0.8375 -0.5465 -0.0000
vt 0.000000 0.000000
s 0
f 26/1/1 64/1/1 2/1/1
f 26/1/1 2/1/1 19/1/1
f 19/1/1 2/1/1 20/1/1
f 26/1/1 19/1/1 25/1/1
f 85/1/1 65/1/1 105/1/1
f 85/1/1 105/1/1 91/1/1
f 91/1/1 105/1/1 90/1/1
f 85/1/1 91/1/1 86/1/1
f 26/1/1 22/1/1 64/1/1
f 65/1/1 85/1/1 88/1/1
f 25/1/1 18/1/1 29/1/1
f 25/1/1 19/1/1 18/1/1
f 86/1/1 92/1/1 29/1/1
f 92/1/1 86/1/1 91/1/1
f 27/1/1 111/1/1 21/1/1
f 89/1/1 27/1/1 111/1/1
f 117/1/1 111/1/1 27/1/1
f 29/1/1 18/1/1 4/1/1
f 4/1/1 29/1/1 92/1/1
f 109/1/1 117/1/1 27/1/1
f 29/1/1 109/1/1 27/1/1
f 23/1/1 110/1/1 4/1/1
f 108/1/1 4/1/1 110/1/1
f 108/1/1 109/1/1 4/1/1
f 23/1/2 107/1/2 110/1/2
f 112/1/3 107/1/3 23/1/3
f 23/1/4 113/1/4 115/1/4
f 115/1/5 112/1/5 23/1/5
f 115/1/6 113/1/6 112/1/6
f 115/1/7 112/1/7 113/1/7 23/1/7
f 111/1/8 114/1/8 112/1/8
f 115/1/1 1/1/1 111/1/1
f 115/1/1 24/1/1 1/1/1
f 87/1/1 106/1/1 115/1/1
f 23/1/1 60/1/1 17/1/1
f 69/1/1 93/1/1 23/1/1
f 23/1/1 4/1/1 60/1/1
f 4/1/1 109/1/1 29/1/1
f 62/1/1 17/1/1 60/1/1
f 67/1/1 93/1/1 69/1/1
f 17/1/1 62/1/1 16/1/1
f 93/1/1 67/1/1 94/1/1
f 16/1/1 13/1/1 17/1/1
f 93/1/1 94/1/1 97/1/1
f 62/1/1 63/1/1 16/1/1
f 67/1/1 66/1/1 94/1/1
f 58/1/1 16/1/1 63/1/1
f 94/1/1 66/1/1 71/1/1
f 61/1/1 14/1/1 63/1/1
f 66/1/1 68/1/1 96/1/1
f 14/1/1 61/1/1 11/1/1
f 96/1/1 68/1/1 99/1/1
f 63/1/1 14/1/1 58/1/1
f 66/1/1 96/1/1 71/1/1
f 58/1/1 14/1/1 54/1/1
f 71/1/1 96/1/1 75/1/1
f 7/1/1 3/1/1 14/1/1
f 3/1/1 96/1/1 102/1/1
f 14/1/1 3/1/1 54/1/1
f 96/1/1 3/1/1 75/1/1
f 16/1/1 55/1/1 13/1/1
f 94/1/1 74/1/1 97/1/1
f 55/1/1 56/1/1 13/1/1
f 74/1/1 73/1/1 97/1/1
f 57/1/1 53/1/1 52/1/1
f 76/1/1 77/1/1 72/1/1
f 52/1/1 5/1/1 57/1/1
f 72/1/1 77/1/1 104/1/1
f 57/1/1 5/1/1 50/1/1
f 78/1/1 72/1/1 104/1/1
f 50/1/1 5/1/1 15/1/1
f 95/1/1 78/1/1 104/1/1
f 57/1/1 50/1/1 46/1/1
f 79/1/1 72/1/1 78/1/1
f 55/1/1 57/1/1 46/1/1
f 74/1/1 72/1/1 79/1/1
f 55/1/1 46/1/1 56/1/1
f 74/1/1 79/1/1 73/1/1
f 59/1/1 10/1/1 41/1/1
f 70/1/1 100/1/1 80/1/1
f 59/1/1 30/1/1 10/1/1
f 100/1/1 70/1/1 84/1/1
f 59/1/1 35/1/1 30/1/1
f 70/1/1 81/1/1 84/1/1
f 59/1/1 56/1/1 35/1/1
f 70/1/1 73/1/1 81/1/1
f 35/1/1 56/1/1 34/1/1
f 73/1/1 34/1/1 81/1/1
f 56/1/1 44/1/1 34/1/1
f 44/1/1 34/1/1 73/1/1
f 56/1/1 46/1/1 44/1/1
f 44/1/1 73/1/1 79/1/1
f 49/1/1 51/1/1 48/1/1
f 51/1/1 49/1/1 45/1/1
f 45/1/1 44/1/1 51/1/1
f 47/1/1 44/1/1 45/1/1
f 45/1/1 49/1/1 8/1/1
f 45/1/1 8/1/1 42/1/1
f 44/1/1 47/1/1 34/1/1
f 43/1/1 34/1/1 47/1/1
f 43/1/1 36/1/1 34/1/1
f 36/1/1 43/1/1 12/1/1
f 98/1/1 36/1/1 43/1/1
f 36/1/1 12/1/1 40/1/1
f 36/1/1 98/1/1 40/1/1
f 37/1/1 36/1/1 40/1/1
f 35/1/1 33/1/1 30/1/1
f 82/1/1 84/1/1 81/1/1
f 37/1/1 28/1/1 32/1/1
f 37/1/1 38/1/1 28/1/1
f 38/1/1 37/1/1 40/1/1
f 40/1/1 12/1/1 39/1/1
f 39/1/1 40/1/1 98/1/1
f 12/1/1 9/1/1 39/1/1
f 101/1/1 39/1/1 98/1/1
f 39/1/1 9/1/1 6/1/1
f 103/1/1 39/1/1 101/1/1
f 39/1/1 6/1/1 31/1/1
f 83/1/1 39/1/1 103/1/1
f 114/1/1 111/1/1 117/1/1 112/1/1
f 114/1/1 112/1/1 116/1/1 115/1/1 111/1/1
l 107 108
l 4 69
l 106 111
l 114 113
