# Blender 4.2.3 LTS
# www.blender.org
mtllib office-plane-gap.mtl
o floor-padding
v 412.104004 16190.983398 -836.518738
v 12925.798828 11978.599609 -836.518921
v 7119.618652 16267.672852 -836.527954
v 12666.300781 9280.389648 -836.519043
v 454.242188 -9668.597656 -836.519897
v 12925.798828 13886.900391 -836.518799
v 10197.599609 6751.853027 -836.518921
v 7114.629883 -9601.798828 -836.519836
v 454.242188 11151.701172 -836.518921
v 10036.500000 15233.598633 -836.518738
v 7041.020020 5916.438477 -836.519165
v 5870.830078 11538.291016 -836.518921
v 10036.500000 13888.298828 -836.518799
v 7835.856934 9289.416992 -836.518982
v 6990.250000 13454.500000 -836.518921
v 5935.160156 15704.599609 -836.526184
v 5274.959961 26064.199219 -836.527527
v 5947.480469 17588.431641 -836.524353
v 5110.621094 16147.818359 -836.522461
v 5250.899414 24588.492188 -836.537598
v 374.047852 7131.329590 -836.519409
v 6067.540039 24588.109375 -836.527588
v 374.047852 7956.700195 -836.519165
v 240.391113 3069.419922 -836.519653
v 5077.680664 7123.120117 -836.519287
v 5075.850586 7945.129883 -836.519226
v 5900.450195 8085.240234 -836.518921
v 5075.649902 8090.749023 -836.519165
v 5894.769531 4320.019531 -836.519287
v 5059.370117 4322.330078 -836.519287
v 240.391113 3904.189453 -836.519897
v 5819.709961 3083.500000 -836.519958
v 5820.890137 3907.389648 -836.519470
v 5033.229980 11145.000000 -836.518921
v 7815.025879 6752.427246 -836.518921
v 6990.753906 6353.656738 -836.519104
v 7013.019531 7935.240234 -836.519043
v 7828.073730 7692.045898 -836.519165
v 7023.259766 9453.009766 -836.519043
v 7006.665527 7690.554688 -836.519165
v 7835.612305 8497.239258 -836.519043
v 10197.599609 8473.059570 -836.519104
v 7834.982910 9452.758789 -836.519043
v 7826.388184 7935.140625 -836.519043
v 12666.400391 11127.700195 -836.518982
v 7832.879883 11128.099609 -836.518921
v 7814.440918 11993.056641 -836.518860
v 6990.410156 9692.058594 -836.518921
v 5914.280273 8826.460938 -836.518860
v 7826.299805 9689.139648 -836.518921
v 7813.138672 13454.142578 -836.518860
v 5075.429688 8827.759766 -836.518860
v 7003.321777 15633.548828 -836.523376
v 7818.729980 15233.598633 -836.521057
v 6992.370117 13803.251953 -836.522217
v 7817.990234 13803.747070 -836.521667
v 5559.908203 17930.199219 -836.524414
v 5141.138672 17588.832031 -836.526794
v 548.706543 26962.402344 -836.523315
v 5283.669922 27756.294922 -836.527588
v 6103.189453 27755.564453 -836.527588
v 5274.830078 26880.437500 -836.527588
v 5490.944336 31078.298828 -836.518005
v 5416.254883 28796.019531 -836.527893
v 7297.268555 28752.978516 -836.527710
v 595.513184 29853.300781 -836.523438
v 5967.399414 17930.199219 -836.524780
v 6010.709961 21296.146484 -836.526123
v 6048.349609 24370.480469 -836.532104
v 548.504883 26146.496094 -836.533386
v 5146.580078 17930.199219 -836.532043
v 5222.919922 24370.777344 -836.540649
vn -0.0000 -0.0000 -1.0000
vn 0.0001 -0.0000 -1.0000
vt 0.000000 0.000000
s 0
f 18/1/1 53/1/1 16/1/1
f 18/1/1 3/1/1 53/1/1
f 18/1/1 67/1/1 3/1/1
f 67/1/1 68/1/1 3/1/1
f 67/1/1 18/1/1 57/1/1
f 58/1/1 57/1/1 18/1/1
f 58/1/1 71/1/1 57/1/1
f 58/1/1 19/1/1 1/1/1
f 58/1/1 1/1/1 70/1/1
f 70/1/1 71/1/1 58/1/1
f 71/1/1 70/1/1 72/1/1
f 68/1/1 69/1/1 3/1/1
f 69/1/2 22/1/2 3/1/2
f 3/1/1 22/1/1 65/1/1
f 20/1/1 72/1/1 70/1/1
f 20/1/1 69/1/1 72/1/1
f 22/1/1 69/1/1 20/1/1
f 20/1/1 70/1/1 17/1/1
f 61/1/1 65/1/1 22/1/1
f 65/1/1 61/1/1 64/1/1
f 61/1/1 60/1/1 64/1/1
f 59/1/1 60/1/1 62/1/1
f 60/1/1 59/1/1 66/1/1
f 64/1/1 60/1/1 66/1/1
f 64/1/1 66/1/1 63/1/1
f 55/1/1 16/1/1 53/1/1
f 16/1/1 55/1/1 15/1/1
f 13/1/1 54/1/1 10/1/1
f 54/1/1 13/1/1 56/1/1
f 56/1/1 13/1/1 51/1/1
f 6/1/1 2/1/1 13/1/1
f 13/1/1 2/1/1 47/1/1
f 51/1/1 13/1/1 47/1/1
f 55/1/1 56/1/1 15/1/1
f 51/1/1 15/1/1 56/1/1
f 15/1/1 12/1/1 16/1/1
f 15/1/1 48/1/1 12/1/1
f 48/1/1 39/1/1 49/1/1
f 48/1/1 49/1/1 12/1/1
f 48/1/1 50/1/1 39/1/1
f 50/1/1 43/1/1 39/1/1
f 50/1/1 46/1/1 45/1/1
f 45/1/1 4/1/1 50/1/1
f 43/1/1 4/1/1 14/1/1
f 50/1/1 4/1/1 43/1/1
f 49/1/1 39/1/1 37/1/1
f 49/1/1 37/1/1 27/1/1
f 28/1/1 49/1/1 27/1/1
f 52/1/1 49/1/1 28/1/1
f 28/1/1 26/1/1 23/1/1
f 52/1/1 28/1/1 23/1/1
f 52/1/1 23/1/1 9/1/1
f 52/1/1 9/1/1 34/1/1
f 37/1/1 40/1/1 27/1/1
f 40/1/1 37/1/1 38/1/1
f 38/1/1 37/1/1 44/1/1
f 42/1/1 44/1/1 41/1/1
f 38/1/1 42/1/1 7/1/1
f 38/1/1 7/1/1 35/1/1
f 44/1/1 42/1/1 38/1/1
f 36/1/1 27/1/1 40/1/1
f 36/1/1 29/1/1 27/1/1
f 29/1/1 36/1/1 11/1/1
f 29/1/1 11/1/1 33/1/1
f 33/1/1 30/1/1 29/1/1
f 30/1/1 21/1/1 25/1/1
f 30/1/1 31/1/1 21/1/1
f 31/1/1 30/1/1 33/1/1
f 33/1/1 11/1/1 32/1/1
f 11/1/1 8/1/1 32/1/1
f 32/1/1 8/1/1 5/1/1
f 32/1/1 5/1/1 24/1/1
